<mxfile host="Electron" modified="2023-11-20T16:14:24.600Z" agent="Mozilla/5.0 (Windows NT 10.0; Win64; x64) AppleWebKit/537.36 (KHTML, like Gecko) draw.io/22.0.3 Chrome/114.0.5735.289 Electron/25.8.4 Safari/537.36" etag="Ila9NRLVLVdsUY9fywbB" version="22.0.3" type="device">
  <diagram name="Page-1" id="k6vfNAXFA29AEZF9l9jf">
    <mxGraphModel dx="1726" dy="1112" grid="1" gridSize="10" guides="1" tooltips="1" connect="1" arrows="1" fold="1" page="1" pageScale="1" pageWidth="850" pageHeight="1100" math="0" shadow="0">
      <root>
        <mxCell id="0" />
        <mxCell id="1" parent="0" />
        <mxCell id="sLzO8iLMH5BmhepTDq8Z-3" value="" style="edgeStyle=orthogonalEdgeStyle;rounded=0;orthogonalLoop=1;jettySize=auto;html=1;" parent="1" source="sLzO8iLMH5BmhepTDq8Z-1" target="sLzO8iLMH5BmhepTDq8Z-2" edge="1">
          <mxGeometry relative="1" as="geometry" />
        </mxCell>
        <mxCell id="sLzO8iLMH5BmhepTDq8Z-1" value="start" style="ellipse;whiteSpace=wrap;html=1;" parent="1" vertex="1">
          <mxGeometry x="110" y="10" width="120" height="80" as="geometry" />
        </mxCell>
        <mxCell id="sLzO8iLMH5BmhepTDq8Z-8" value="" style="edgeStyle=orthogonalEdgeStyle;rounded=0;orthogonalLoop=1;jettySize=auto;html=1;" parent="1" source="sLzO8iLMH5BmhepTDq8Z-2" target="sLzO8iLMH5BmhepTDq8Z-6" edge="1">
          <mxGeometry relative="1" as="geometry" />
        </mxCell>
        <mxCell id="sLzO8iLMH5BmhepTDq8Z-2" value="input n" style="shape=parallelogram;perimeter=parallelogramPerimeter;whiteSpace=wrap;html=1;fixedSize=1;" parent="1" vertex="1">
          <mxGeometry x="110" y="180" width="120" height="60" as="geometry" />
        </mxCell>
        <mxCell id="sLzO8iLMH5BmhepTDq8Z-11" value="" style="edgeStyle=orthogonalEdgeStyle;rounded=0;orthogonalLoop=1;jettySize=auto;html=1;" parent="1" source="sLzO8iLMH5BmhepTDq8Z-4" target="sLzO8iLMH5BmhepTDq8Z-10" edge="1">
          <mxGeometry relative="1" as="geometry" />
        </mxCell>
        <mxCell id="sLzO8iLMH5BmhepTDq8Z-4" value="i&amp;lt;n" style="rhombus;whiteSpace=wrap;html=1;" parent="1" vertex="1">
          <mxGeometry x="130" y="450" width="80" height="80" as="geometry" />
        </mxCell>
        <mxCell id="sLzO8iLMH5BmhepTDq8Z-9" value="" style="edgeStyle=orthogonalEdgeStyle;rounded=0;orthogonalLoop=1;jettySize=auto;html=1;" parent="1" source="sLzO8iLMH5BmhepTDq8Z-6" target="sLzO8iLMH5BmhepTDq8Z-4" edge="1">
          <mxGeometry relative="1" as="geometry" />
        </mxCell>
        <mxCell id="sLzO8iLMH5BmhepTDq8Z-17" style="edgeStyle=orthogonalEdgeStyle;rounded=0;orthogonalLoop=1;jettySize=auto;html=1;entryX=0;entryY=0.5;entryDx=0;entryDy=0;" parent="1" source="sLzO8iLMH5BmhepTDq8Z-6" target="sLzO8iLMH5BmhepTDq8Z-16" edge="1">
          <mxGeometry relative="1" as="geometry">
            <Array as="points">
              <mxPoint x="40" y="350" />
              <mxPoint x="40" y="890" />
            </Array>
          </mxGeometry>
        </mxCell>
        <mxCell id="sLzO8iLMH5BmhepTDq8Z-6" value="i=0" style="whiteSpace=wrap;html=1;" parent="1" vertex="1">
          <mxGeometry x="110" y="320" width="120" height="60" as="geometry" />
        </mxCell>
        <mxCell id="sLzO8iLMH5BmhepTDq8Z-13" value="" style="edgeStyle=orthogonalEdgeStyle;rounded=0;orthogonalLoop=1;jettySize=auto;html=1;" parent="1" source="sLzO8iLMH5BmhepTDq8Z-10" target="sLzO8iLMH5BmhepTDq8Z-12" edge="1">
          <mxGeometry relative="1" as="geometry" />
        </mxCell>
        <mxCell id="sLzO8iLMH5BmhepTDq8Z-10" value="input a[i]" style="shape=parallelogram;perimeter=parallelogramPerimeter;whiteSpace=wrap;html=1;fixedSize=1;" parent="1" vertex="1">
          <mxGeometry x="110" y="590" width="120" height="60" as="geometry" />
        </mxCell>
        <mxCell id="sLzO8iLMH5BmhepTDq8Z-14" style="edgeStyle=orthogonalEdgeStyle;rounded=0;orthogonalLoop=1;jettySize=auto;html=1;entryX=1;entryY=0.5;entryDx=0;entryDy=0;" parent="1" source="sLzO8iLMH5BmhepTDq8Z-12" target="sLzO8iLMH5BmhepTDq8Z-6" edge="1">
          <mxGeometry relative="1" as="geometry">
            <Array as="points">
              <mxPoint x="360" y="720" />
              <mxPoint x="360" y="350" />
            </Array>
          </mxGeometry>
        </mxCell>
        <mxCell id="sLzO8iLMH5BmhepTDq8Z-12" value="i++" style="rounded=0;whiteSpace=wrap;html=1;" parent="1" vertex="1">
          <mxGeometry x="110" y="690" width="120" height="60" as="geometry" />
        </mxCell>
        <mxCell id="sLzO8iLMH5BmhepTDq8Z-15" value="true" style="text;html=1;strokeColor=none;fillColor=none;align=center;verticalAlign=middle;whiteSpace=wrap;rounded=0;" parent="1" vertex="1">
          <mxGeometry x="110" y="400" width="60" height="30" as="geometry" />
        </mxCell>
        <mxCell id="sLzO8iLMH5BmhepTDq8Z-20" value="" style="edgeStyle=orthogonalEdgeStyle;rounded=0;orthogonalLoop=1;jettySize=auto;html=1;" parent="1" source="sLzO8iLMH5BmhepTDq8Z-16" target="sLzO8iLMH5BmhepTDq8Z-19" edge="1">
          <mxGeometry relative="1" as="geometry" />
        </mxCell>
        <mxCell id="sLzO8iLMH5BmhepTDq8Z-55" value="" style="edgeStyle=orthogonalEdgeStyle;rounded=0;orthogonalLoop=1;jettySize=auto;html=1;" parent="1" source="sLzO8iLMH5BmhepTDq8Z-16" target="sLzO8iLMH5BmhepTDq8Z-54" edge="1">
          <mxGeometry relative="1" as="geometry" />
        </mxCell>
        <mxCell id="sLzO8iLMH5BmhepTDq8Z-16" value="case 1" style="rhombus;whiteSpace=wrap;html=1;" parent="1" vertex="1">
          <mxGeometry x="130" y="850" width="80" height="80" as="geometry" />
        </mxCell>
        <mxCell id="sLzO8iLMH5BmhepTDq8Z-18" value="false" style="text;html=1;strokeColor=none;fillColor=none;align=center;verticalAlign=middle;whiteSpace=wrap;rounded=0;" parent="1" vertex="1">
          <mxGeometry x="30" y="320" width="60" height="30" as="geometry" />
        </mxCell>
        <mxCell id="sLzO8iLMH5BmhepTDq8Z-22" value="" style="edgeStyle=orthogonalEdgeStyle;rounded=0;orthogonalLoop=1;jettySize=auto;html=1;" parent="1" source="sLzO8iLMH5BmhepTDq8Z-19" target="sLzO8iLMH5BmhepTDq8Z-21" edge="1">
          <mxGeometry relative="1" as="geometry" />
        </mxCell>
        <mxCell id="sLzO8iLMH5BmhepTDq8Z-19" value="i=0" style="rounded=0;whiteSpace=wrap;html=1;" parent="1" vertex="1">
          <mxGeometry x="250" y="860" width="120" height="60" as="geometry" />
        </mxCell>
        <mxCell id="sLzO8iLMH5BmhepTDq8Z-24" value="" style="edgeStyle=orthogonalEdgeStyle;rounded=0;orthogonalLoop=1;jettySize=auto;html=1;" parent="1" source="sLzO8iLMH5BmhepTDq8Z-21" edge="1">
          <mxGeometry relative="1" as="geometry">
            <mxPoint x="550" y="890" as="targetPoint" />
          </mxGeometry>
        </mxCell>
        <mxCell id="OeKtAEOKeRoVn0CuxYTe-5" style="edgeStyle=orthogonalEdgeStyle;rounded=0;orthogonalLoop=1;jettySize=auto;html=1;" edge="1" parent="1" source="sLzO8iLMH5BmhepTDq8Z-21">
          <mxGeometry relative="1" as="geometry">
            <mxPoint x="1550" y="1060" as="targetPoint" />
            <Array as="points">
              <mxPoint x="465" y="1010" />
              <mxPoint x="466" y="1090" />
            </Array>
          </mxGeometry>
        </mxCell>
        <mxCell id="sLzO8iLMH5BmhepTDq8Z-21" value="i&amp;lt;n" style="rhombus;whiteSpace=wrap;html=1;" parent="1" vertex="1">
          <mxGeometry x="425" y="850" width="80" height="80" as="geometry" />
        </mxCell>
        <mxCell id="sLzO8iLMH5BmhepTDq8Z-28" value="" style="edgeStyle=orthogonalEdgeStyle;rounded=0;orthogonalLoop=1;jettySize=auto;html=1;" parent="1" source="sLzO8iLMH5BmhepTDq8Z-25" target="sLzO8iLMH5BmhepTDq8Z-27" edge="1">
          <mxGeometry relative="1" as="geometry" />
        </mxCell>
        <mxCell id="sLzO8iLMH5BmhepTDq8Z-25" value="j = i-1&lt;br&gt;temp = a[i]" style="whiteSpace=wrap;html=1;rounded=0;" parent="1" vertex="1">
          <mxGeometry x="550" y="860" width="120" height="60" as="geometry" />
        </mxCell>
        <mxCell id="sLzO8iLMH5BmhepTDq8Z-30" value="" style="edgeStyle=orthogonalEdgeStyle;rounded=0;orthogonalLoop=1;jettySize=auto;html=1;" parent="1" source="sLzO8iLMH5BmhepTDq8Z-27" target="sLzO8iLMH5BmhepTDq8Z-29" edge="1">
          <mxGeometry relative="1" as="geometry" />
        </mxCell>
        <mxCell id="sLzO8iLMH5BmhepTDq8Z-34" style="edgeStyle=orthogonalEdgeStyle;rounded=0;orthogonalLoop=1;jettySize=auto;html=1;" parent="1" source="sLzO8iLMH5BmhepTDq8Z-27" edge="1">
          <mxGeometry relative="1" as="geometry">
            <mxPoint x="795" y="720" as="targetPoint" />
          </mxGeometry>
        </mxCell>
        <mxCell id="sLzO8iLMH5BmhepTDq8Z-27" value="j &amp;gt;=0 &amp;amp;&amp;amp;a[j]&amp;lt; temp" style="rhombus;whiteSpace=wrap;html=1;" parent="1" vertex="1">
          <mxGeometry x="730" y="850" width="130" height="80" as="geometry" />
        </mxCell>
        <mxCell id="sLzO8iLMH5BmhepTDq8Z-57" value="" style="edgeStyle=orthogonalEdgeStyle;rounded=0;orthogonalLoop=1;jettySize=auto;html=1;" parent="1" source="sLzO8iLMH5BmhepTDq8Z-29" target="sLzO8iLMH5BmhepTDq8Z-32" edge="1">
          <mxGeometry relative="1" as="geometry" />
        </mxCell>
        <mxCell id="sLzO8iLMH5BmhepTDq8Z-29" value="a[j+1] = a[j]&lt;br&gt;j =j-1&lt;br&gt;a[j+1] = temp" style="rounded=0;whiteSpace=wrap;html=1;" parent="1" vertex="1">
          <mxGeometry x="900" y="860" width="120" height="60" as="geometry" />
        </mxCell>
        <mxCell id="sLzO8iLMH5BmhepTDq8Z-33" style="edgeStyle=orthogonalEdgeStyle;rounded=0;orthogonalLoop=1;jettySize=auto;html=1;entryX=0.5;entryY=0;entryDx=0;entryDy=0;" parent="1" source="sLzO8iLMH5BmhepTDq8Z-32" target="sLzO8iLMH5BmhepTDq8Z-21" edge="1">
          <mxGeometry relative="1" as="geometry">
            <Array as="points">
              <mxPoint x="1120" y="720" />
              <mxPoint x="465" y="720" />
            </Array>
          </mxGeometry>
        </mxCell>
        <mxCell id="sLzO8iLMH5BmhepTDq8Z-32" value="i++" style="rounded=0;whiteSpace=wrap;html=1;" parent="1" vertex="1">
          <mxGeometry x="1060" y="860" width="120" height="60" as="geometry" />
        </mxCell>
        <mxCell id="sLzO8iLMH5BmhepTDq8Z-35" value="true" style="text;html=1;strokeColor=none;fillColor=none;align=center;verticalAlign=middle;whiteSpace=wrap;rounded=0;" parent="1" vertex="1">
          <mxGeometry x="840" y="860" width="60" height="30" as="geometry" />
        </mxCell>
        <mxCell id="sLzO8iLMH5BmhepTDq8Z-36" value="true" style="text;html=1;strokeColor=none;fillColor=none;align=center;verticalAlign=middle;whiteSpace=wrap;rounded=0;" parent="1" vertex="1">
          <mxGeometry x="490" y="850" width="60" height="30" as="geometry" />
        </mxCell>
        <mxCell id="sLzO8iLMH5BmhepTDq8Z-37" value="false" style="text;html=1;strokeColor=none;fillColor=none;align=center;verticalAlign=middle;whiteSpace=wrap;rounded=0;" parent="1" vertex="1">
          <mxGeometry x="750" y="810" width="60" height="30" as="geometry" />
        </mxCell>
        <mxCell id="sLzO8iLMH5BmhepTDq8Z-40" value="false" style="text;html=1;strokeColor=none;fillColor=none;align=center;verticalAlign=middle;whiteSpace=wrap;rounded=0;" parent="1" vertex="1">
          <mxGeometry x="450" y="970" width="60" height="30" as="geometry" />
        </mxCell>
        <mxCell id="sLzO8iLMH5BmhepTDq8Z-41" value="" style="edgeStyle=orthogonalEdgeStyle;rounded=0;orthogonalLoop=1;jettySize=auto;html=1;" parent="1" source="sLzO8iLMH5BmhepTDq8Z-42" target="sLzO8iLMH5BmhepTDq8Z-44" edge="1">
          <mxGeometry relative="1" as="geometry" />
        </mxCell>
        <mxCell id="sLzO8iLMH5BmhepTDq8Z-42" value="i=0" style="rounded=0;whiteSpace=wrap;html=1;" parent="1" vertex="1">
          <mxGeometry x="250" y="1190" width="120" height="60" as="geometry" />
        </mxCell>
        <mxCell id="sLzO8iLMH5BmhepTDq8Z-43" value="" style="edgeStyle=orthogonalEdgeStyle;rounded=0;orthogonalLoop=1;jettySize=auto;html=1;" parent="1" source="sLzO8iLMH5BmhepTDq8Z-44" edge="1">
          <mxGeometry relative="1" as="geometry">
            <mxPoint x="550" y="1220" as="targetPoint" />
          </mxGeometry>
        </mxCell>
        <mxCell id="sLzO8iLMH5BmhepTDq8Z-78" style="edgeStyle=orthogonalEdgeStyle;rounded=0;orthogonalLoop=1;jettySize=auto;html=1;" parent="1" source="sLzO8iLMH5BmhepTDq8Z-44" edge="1">
          <mxGeometry relative="1" as="geometry">
            <Array as="points">
              <mxPoint x="465" y="1420" />
              <mxPoint x="1550" y="1420" />
              <mxPoint x="1550" y="650" />
              <mxPoint x="397" y="650" />
            </Array>
            <mxPoint x="40" y="810" as="targetPoint" />
          </mxGeometry>
        </mxCell>
        <mxCell id="sLzO8iLMH5BmhepTDq8Z-44" value="i&amp;lt;n-1" style="rhombus;whiteSpace=wrap;html=1;" parent="1" vertex="1">
          <mxGeometry x="425" y="1180" width="80" height="80" as="geometry" />
        </mxCell>
        <mxCell id="sLzO8iLMH5BmhepTDq8Z-45" value="" style="edgeStyle=orthogonalEdgeStyle;rounded=0;orthogonalLoop=1;jettySize=auto;html=1;" parent="1" edge="1">
          <mxGeometry relative="1" as="geometry">
            <mxPoint x="670" y="1220" as="sourcePoint" />
            <mxPoint x="730" y="1220" as="targetPoint" />
          </mxGeometry>
        </mxCell>
        <mxCell id="sLzO8iLMH5BmhepTDq8Z-56" value="" style="edgeStyle=orthogonalEdgeStyle;rounded=0;orthogonalLoop=1;jettySize=auto;html=1;" parent="1" source="sLzO8iLMH5BmhepTDq8Z-54" target="sLzO8iLMH5BmhepTDq8Z-42" edge="1">
          <mxGeometry relative="1" as="geometry" />
        </mxCell>
        <mxCell id="sLzO8iLMH5BmhepTDq8Z-83" value="" style="edgeStyle=orthogonalEdgeStyle;rounded=0;orthogonalLoop=1;jettySize=auto;html=1;" parent="1" source="sLzO8iLMH5BmhepTDq8Z-54" target="sLzO8iLMH5BmhepTDq8Z-82" edge="1">
          <mxGeometry relative="1" as="geometry" />
        </mxCell>
        <mxCell id="sLzO8iLMH5BmhepTDq8Z-54" value="case 2" style="rhombus;whiteSpace=wrap;html=1;" parent="1" vertex="1">
          <mxGeometry x="130" y="1180" width="80" height="80" as="geometry" />
        </mxCell>
        <mxCell id="sLzO8iLMH5BmhepTDq8Z-63" value="" style="edgeStyle=orthogonalEdgeStyle;rounded=0;orthogonalLoop=1;jettySize=auto;html=1;" parent="1" source="sLzO8iLMH5BmhepTDq8Z-60" target="sLzO8iLMH5BmhepTDq8Z-62" edge="1">
          <mxGeometry relative="1" as="geometry" />
        </mxCell>
        <mxCell id="sLzO8iLMH5BmhepTDq8Z-74" style="edgeStyle=orthogonalEdgeStyle;rounded=0;orthogonalLoop=1;jettySize=auto;html=1;entryX=0.5;entryY=1;entryDx=0;entryDy=0;" parent="1" source="sLzO8iLMH5BmhepTDq8Z-60" target="sLzO8iLMH5BmhepTDq8Z-66" edge="1">
          <mxGeometry relative="1" as="geometry">
            <Array as="points">
              <mxPoint x="770" y="1350" />
              <mxPoint x="1280" y="1350" />
            </Array>
          </mxGeometry>
        </mxCell>
        <mxCell id="sLzO8iLMH5BmhepTDq8Z-60" value="j&amp;lt; n" style="rhombus;whiteSpace=wrap;html=1;" parent="1" vertex="1">
          <mxGeometry x="730" y="1180" width="80" height="80" as="geometry" />
        </mxCell>
        <mxCell id="sLzO8iLMH5BmhepTDq8Z-61" value="j = i+1" style="rounded=0;whiteSpace=wrap;html=1;" parent="1" vertex="1">
          <mxGeometry x="550" y="1190" width="120" height="60" as="geometry" />
        </mxCell>
        <mxCell id="sLzO8iLMH5BmhepTDq8Z-69" style="edgeStyle=orthogonalEdgeStyle;rounded=0;orthogonalLoop=1;jettySize=auto;html=1;" parent="1" source="sLzO8iLMH5BmhepTDq8Z-62" edge="1">
          <mxGeometry relative="1" as="geometry">
            <mxPoint x="930" y="1130" as="targetPoint" />
          </mxGeometry>
        </mxCell>
        <mxCell id="sLzO8iLMH5BmhepTDq8Z-62" value="a[i] &amp;gt; a[j]" style="rhombus;whiteSpace=wrap;html=1;" parent="1" vertex="1">
          <mxGeometry x="890" y="1180" width="80" height="80" as="geometry" />
        </mxCell>
        <mxCell id="sLzO8iLMH5BmhepTDq8Z-67" value="" style="edgeStyle=orthogonalEdgeStyle;rounded=0;orthogonalLoop=1;jettySize=auto;html=1;" parent="1" source="sLzO8iLMH5BmhepTDq8Z-64" target="sLzO8iLMH5BmhepTDq8Z-66" edge="1">
          <mxGeometry relative="1" as="geometry">
            <Array as="points">
              <mxPoint x="1190" y="1220" />
              <mxPoint x="1190" y="1220" />
            </Array>
          </mxGeometry>
        </mxCell>
        <mxCell id="sLzO8iLMH5BmhepTDq8Z-64" value="temp = a[i]&lt;br&gt;a[i] = a[j]&lt;br&gt;a[j] = temp" style="rounded=0;whiteSpace=wrap;html=1;" parent="1" vertex="1">
          <mxGeometry x="1020" y="1190" width="120" height="60" as="geometry" />
        </mxCell>
        <mxCell id="sLzO8iLMH5BmhepTDq8Z-68" style="edgeStyle=orthogonalEdgeStyle;rounded=0;orthogonalLoop=1;jettySize=auto;html=1;entryX=0.5;entryY=0;entryDx=0;entryDy=0;" parent="1" source="sLzO8iLMH5BmhepTDq8Z-66" target="sLzO8iLMH5BmhepTDq8Z-44" edge="1">
          <mxGeometry relative="1" as="geometry">
            <Array as="points">
              <mxPoint x="1280" y="1130" />
              <mxPoint x="465" y="1130" />
            </Array>
          </mxGeometry>
        </mxCell>
        <mxCell id="sLzO8iLMH5BmhepTDq8Z-66" value="i++&lt;br&gt;j++" style="whiteSpace=wrap;html=1;rounded=0;" parent="1" vertex="1">
          <mxGeometry x="1220" y="1190" width="120" height="60" as="geometry" />
        </mxCell>
        <mxCell id="sLzO8iLMH5BmhepTDq8Z-70" value="true" style="text;html=1;strokeColor=none;fillColor=none;align=center;verticalAlign=middle;whiteSpace=wrap;rounded=0;" parent="1" vertex="1">
          <mxGeometry x="490" y="1190" width="60" height="30" as="geometry" />
        </mxCell>
        <mxCell id="sLzO8iLMH5BmhepTDq8Z-71" value="true" style="text;html=1;strokeColor=none;fillColor=none;align=center;verticalAlign=middle;whiteSpace=wrap;rounded=0;" parent="1" vertex="1">
          <mxGeometry x="810" y="1190" width="60" height="30" as="geometry" />
        </mxCell>
        <mxCell id="sLzO8iLMH5BmhepTDq8Z-72" value="true" style="text;html=1;strokeColor=none;fillColor=none;align=center;verticalAlign=middle;whiteSpace=wrap;rounded=0;" parent="1" vertex="1">
          <mxGeometry x="960" y="1180" width="60" height="30" as="geometry" />
        </mxCell>
        <mxCell id="sLzO8iLMH5BmhepTDq8Z-73" value="false" style="text;html=1;strokeColor=none;fillColor=none;align=center;verticalAlign=middle;whiteSpace=wrap;rounded=0;" parent="1" vertex="1">
          <mxGeometry x="880" y="1145" width="60" height="30" as="geometry" />
        </mxCell>
        <mxCell id="sLzO8iLMH5BmhepTDq8Z-75" value="fasle" style="text;html=1;strokeColor=none;fillColor=none;align=center;verticalAlign=middle;whiteSpace=wrap;rounded=0;" parent="1" vertex="1">
          <mxGeometry x="710" y="1280" width="60" height="30" as="geometry" />
        </mxCell>
        <mxCell id="sLzO8iLMH5BmhepTDq8Z-81" value="fasle" style="text;html=1;strokeColor=none;fillColor=none;align=center;verticalAlign=middle;whiteSpace=wrap;rounded=0;" parent="1" vertex="1">
          <mxGeometry x="470" y="1270" width="60" height="30" as="geometry" />
        </mxCell>
        <mxCell id="sLzO8iLMH5BmhepTDq8Z-105" value="" style="edgeStyle=orthogonalEdgeStyle;rounded=0;orthogonalLoop=1;jettySize=auto;html=1;" parent="1" source="sLzO8iLMH5BmhepTDq8Z-82" target="sLzO8iLMH5BmhepTDq8Z-85" edge="1">
          <mxGeometry relative="1" as="geometry" />
        </mxCell>
        <mxCell id="sLzO8iLMH5BmhepTDq8Z-109" value="" style="edgeStyle=orthogonalEdgeStyle;rounded=0;orthogonalLoop=1;jettySize=auto;html=1;" parent="1" source="sLzO8iLMH5BmhepTDq8Z-82" target="sLzO8iLMH5BmhepTDq8Z-108" edge="1">
          <mxGeometry relative="1" as="geometry" />
        </mxCell>
        <mxCell id="sLzO8iLMH5BmhepTDq8Z-82" value="case 3" style="rhombus;whiteSpace=wrap;html=1;" parent="1" vertex="1">
          <mxGeometry x="130" y="1630" width="80" height="80" as="geometry" />
        </mxCell>
        <mxCell id="sLzO8iLMH5BmhepTDq8Z-84" value="" style="edgeStyle=orthogonalEdgeStyle;rounded=0;orthogonalLoop=1;jettySize=auto;html=1;" parent="1" source="sLzO8iLMH5BmhepTDq8Z-85" target="sLzO8iLMH5BmhepTDq8Z-87" edge="1">
          <mxGeometry relative="1" as="geometry" />
        </mxCell>
        <mxCell id="sLzO8iLMH5BmhepTDq8Z-85" value="i=0" style="rounded=0;whiteSpace=wrap;html=1;" parent="1" vertex="1">
          <mxGeometry x="250" y="1640" width="120" height="60" as="geometry" />
        </mxCell>
        <mxCell id="sLzO8iLMH5BmhepTDq8Z-86" value="" style="edgeStyle=orthogonalEdgeStyle;rounded=0;orthogonalLoop=1;jettySize=auto;html=1;" parent="1" source="sLzO8iLMH5BmhepTDq8Z-87" edge="1">
          <mxGeometry relative="1" as="geometry">
            <mxPoint x="550" y="1670" as="targetPoint" />
          </mxGeometry>
        </mxCell>
        <mxCell id="sLzO8iLMH5BmhepTDq8Z-106" style="edgeStyle=orthogonalEdgeStyle;rounded=0;orthogonalLoop=1;jettySize=auto;html=1;" parent="1" source="sLzO8iLMH5BmhepTDq8Z-87" edge="1">
          <mxGeometry relative="1" as="geometry">
            <mxPoint x="1540" y="1418.4000244140625" as="targetPoint" />
            <Array as="points">
              <mxPoint x="465" y="1870" />
              <mxPoint x="1541" y="1870" />
            </Array>
          </mxGeometry>
        </mxCell>
        <mxCell id="sLzO8iLMH5BmhepTDq8Z-87" value="i&amp;lt;n-1" style="rhombus;whiteSpace=wrap;html=1;" parent="1" vertex="1">
          <mxGeometry x="425" y="1630" width="80" height="80" as="geometry" />
        </mxCell>
        <mxCell id="sLzO8iLMH5BmhepTDq8Z-88" value="" style="edgeStyle=orthogonalEdgeStyle;rounded=0;orthogonalLoop=1;jettySize=auto;html=1;" parent="1" edge="1">
          <mxGeometry relative="1" as="geometry">
            <mxPoint x="670" y="1670" as="sourcePoint" />
            <mxPoint x="730" y="1670" as="targetPoint" />
          </mxGeometry>
        </mxCell>
        <mxCell id="sLzO8iLMH5BmhepTDq8Z-89" value="" style="edgeStyle=orthogonalEdgeStyle;rounded=0;orthogonalLoop=1;jettySize=auto;html=1;" parent="1" source="sLzO8iLMH5BmhepTDq8Z-91" target="sLzO8iLMH5BmhepTDq8Z-94" edge="1">
          <mxGeometry relative="1" as="geometry" />
        </mxCell>
        <mxCell id="sLzO8iLMH5BmhepTDq8Z-90" style="edgeStyle=orthogonalEdgeStyle;rounded=0;orthogonalLoop=1;jettySize=auto;html=1;entryX=0.5;entryY=1;entryDx=0;entryDy=0;" parent="1" source="sLzO8iLMH5BmhepTDq8Z-91" target="sLzO8iLMH5BmhepTDq8Z-98" edge="1">
          <mxGeometry relative="1" as="geometry">
            <Array as="points">
              <mxPoint x="770" y="1800" />
              <mxPoint x="1280" y="1800" />
            </Array>
          </mxGeometry>
        </mxCell>
        <mxCell id="sLzO8iLMH5BmhepTDq8Z-91" value="j&amp;lt; n" style="rhombus;whiteSpace=wrap;html=1;" parent="1" vertex="1">
          <mxGeometry x="730" y="1630" width="80" height="80" as="geometry" />
        </mxCell>
        <mxCell id="sLzO8iLMH5BmhepTDq8Z-92" value="j = i+1" style="rounded=0;whiteSpace=wrap;html=1;" parent="1" vertex="1">
          <mxGeometry x="550" y="1640" width="120" height="60" as="geometry" />
        </mxCell>
        <mxCell id="sLzO8iLMH5BmhepTDq8Z-93" style="edgeStyle=orthogonalEdgeStyle;rounded=0;orthogonalLoop=1;jettySize=auto;html=1;" parent="1" source="sLzO8iLMH5BmhepTDq8Z-94" edge="1">
          <mxGeometry relative="1" as="geometry">
            <mxPoint x="930" y="1580" as="targetPoint" />
          </mxGeometry>
        </mxCell>
        <mxCell id="sLzO8iLMH5BmhepTDq8Z-94" value="a[j] &amp;lt;a[j+1]" style="rhombus;whiteSpace=wrap;html=1;" parent="1" vertex="1">
          <mxGeometry x="890" y="1630" width="80" height="80" as="geometry" />
        </mxCell>
        <mxCell id="sLzO8iLMH5BmhepTDq8Z-95" value="" style="edgeStyle=orthogonalEdgeStyle;rounded=0;orthogonalLoop=1;jettySize=auto;html=1;" parent="1" source="sLzO8iLMH5BmhepTDq8Z-96" target="sLzO8iLMH5BmhepTDq8Z-98" edge="1">
          <mxGeometry relative="1" as="geometry">
            <Array as="points">
              <mxPoint x="1190" y="1670" />
              <mxPoint x="1190" y="1670" />
            </Array>
          </mxGeometry>
        </mxCell>
        <mxCell id="sLzO8iLMH5BmhepTDq8Z-96" value="temp = a[j]&lt;br&gt;a[i] = a[j+1]&lt;br&gt;a[j+1] = temp" style="rounded=0;whiteSpace=wrap;html=1;" parent="1" vertex="1">
          <mxGeometry x="1020" y="1640" width="120" height="60" as="geometry" />
        </mxCell>
        <mxCell id="sLzO8iLMH5BmhepTDq8Z-97" style="edgeStyle=orthogonalEdgeStyle;rounded=0;orthogonalLoop=1;jettySize=auto;html=1;entryX=0.5;entryY=0;entryDx=0;entryDy=0;" parent="1" source="sLzO8iLMH5BmhepTDq8Z-98" target="sLzO8iLMH5BmhepTDq8Z-87" edge="1">
          <mxGeometry relative="1" as="geometry">
            <Array as="points">
              <mxPoint x="1280" y="1580" />
              <mxPoint x="465" y="1580" />
            </Array>
          </mxGeometry>
        </mxCell>
        <mxCell id="sLzO8iLMH5BmhepTDq8Z-98" value="i++&lt;br&gt;j++" style="whiteSpace=wrap;html=1;rounded=0;" parent="1" vertex="1">
          <mxGeometry x="1220" y="1640" width="120" height="60" as="geometry" />
        </mxCell>
        <mxCell id="sLzO8iLMH5BmhepTDq8Z-99" value="true" style="text;html=1;strokeColor=none;fillColor=none;align=center;verticalAlign=middle;whiteSpace=wrap;rounded=0;" parent="1" vertex="1">
          <mxGeometry x="490" y="1640" width="60" height="30" as="geometry" />
        </mxCell>
        <mxCell id="sLzO8iLMH5BmhepTDq8Z-100" value="true" style="text;html=1;strokeColor=none;fillColor=none;align=center;verticalAlign=middle;whiteSpace=wrap;rounded=0;" parent="1" vertex="1">
          <mxGeometry x="810" y="1640" width="60" height="30" as="geometry" />
        </mxCell>
        <mxCell id="sLzO8iLMH5BmhepTDq8Z-101" value="true" style="text;html=1;strokeColor=none;fillColor=none;align=center;verticalAlign=middle;whiteSpace=wrap;rounded=0;" parent="1" vertex="1">
          <mxGeometry x="960" y="1630" width="60" height="30" as="geometry" />
        </mxCell>
        <mxCell id="sLzO8iLMH5BmhepTDq8Z-102" value="false" style="text;html=1;strokeColor=none;fillColor=none;align=center;verticalAlign=middle;whiteSpace=wrap;rounded=0;" parent="1" vertex="1">
          <mxGeometry x="880" y="1595" width="60" height="30" as="geometry" />
        </mxCell>
        <mxCell id="sLzO8iLMH5BmhepTDq8Z-103" value="fasle" style="text;html=1;strokeColor=none;fillColor=none;align=center;verticalAlign=middle;whiteSpace=wrap;rounded=0;" parent="1" vertex="1">
          <mxGeometry x="710" y="1730" width="60" height="30" as="geometry" />
        </mxCell>
        <mxCell id="sLzO8iLMH5BmhepTDq8Z-107" value="false" style="text;html=1;strokeColor=none;fillColor=none;align=center;verticalAlign=middle;whiteSpace=wrap;rounded=0;" parent="1" vertex="1">
          <mxGeometry x="450" y="1730" width="60" height="30" as="geometry" />
        </mxCell>
        <mxCell id="sLzO8iLMH5BmhepTDq8Z-111" value="" style="edgeStyle=orthogonalEdgeStyle;rounded=0;orthogonalLoop=1;jettySize=auto;html=1;" parent="1" source="sLzO8iLMH5BmhepTDq8Z-108" target="sLzO8iLMH5BmhepTDq8Z-110" edge="1">
          <mxGeometry relative="1" as="geometry" />
        </mxCell>
        <mxCell id="OeKtAEOKeRoVn0CuxYTe-4" value="" style="edgeStyle=orthogonalEdgeStyle;rounded=0;orthogonalLoop=1;jettySize=auto;html=1;" edge="1" parent="1" source="sLzO8iLMH5BmhepTDq8Z-108" target="OeKtAEOKeRoVn0CuxYTe-3">
          <mxGeometry relative="1" as="geometry" />
        </mxCell>
        <mxCell id="sLzO8iLMH5BmhepTDq8Z-108" value="case 4" style="rhombus;whiteSpace=wrap;html=1;" parent="1" vertex="1">
          <mxGeometry x="130" y="1930" width="80" height="80" as="geometry" />
        </mxCell>
        <mxCell id="sLzO8iLMH5BmhepTDq8Z-110" value="end" style="shape=parallelogram;perimeter=parallelogramPerimeter;whiteSpace=wrap;html=1;fixedSize=1;" parent="1" vertex="1">
          <mxGeometry x="270" y="1940" width="120" height="60" as="geometry" />
        </mxCell>
        <mxCell id="OeKtAEOKeRoVn0CuxYTe-7" style="edgeStyle=orthogonalEdgeStyle;rounded=0;orthogonalLoop=1;jettySize=auto;html=1;" edge="1" parent="1" source="OeKtAEOKeRoVn0CuxYTe-3">
          <mxGeometry relative="1" as="geometry">
            <mxPoint x="1540" y="1870" as="targetPoint" />
          </mxGeometry>
        </mxCell>
        <mxCell id="OeKtAEOKeRoVn0CuxYTe-3" value="vui long nhap tu 1-4" style="shape=parallelogram;perimeter=parallelogramPerimeter;whiteSpace=wrap;html=1;fixedSize=1;" vertex="1" parent="1">
          <mxGeometry x="110" y="2100" width="120" height="60" as="geometry" />
        </mxCell>
      </root>
    </mxGraphModel>
  </diagram>
</mxfile>
